<?xml version="1.0" encoding="utf-8"?>
<!-- Generator: Adobe Illustrator 19.2.1, SVG Export Plug-In . SVG Version: 6.00 Build 0)  -->
<svg version="1.1" id="Layer_1" xmlns="http://www.w3.org/2000/svg" xmlns:xlink="http://www.w3.org/1999/xlink" x="0px" y="0px"
	 viewBox="0 0 18 13" style="enable-background:new 0 0 18 13;" xml:space="preserve">
<style type="text/css">
	.st0{fill:#FFFFFF;}
</style>
<g>
	<g>
		<path class="st0" d="M16.5,0H1.5C0.7,0,0,0.7,0,1.5v10.1C0,12.3,0.7,13,1.5,13h15.1c0.8,0,1.5-0.7,1.5-1.5V1.5
			C18,0.7,17.3,0,16.5,0z M16.5,0.6c0.1,0,0.3,0,0.4,0.1L9.7,7.1c-0.4,0.3-1,0.3-1.4,0L1,0.7c0.1-0.1,0.3-0.1,0.4-0.1H16.5z
			 M17.4,11.5c0,0.5-0.4,0.9-0.9,0.9H1.5c-0.5,0-0.9-0.4-0.9-0.9V1.5c0-0.1,0-0.2,0.1-0.3l5.9,5.2L3.2,9.5c-0.1,0.1-0.1,0.3,0,0.4
			C3.3,10,3.3,10,3.4,10c0.1,0,0.1,0,0.2-0.1L7,6.8c0,0,0,0,0,0l1,0.8C8.2,7.9,8.6,8,9,8c0.4,0,0.8-0.1,1.1-0.4l1-0.8c0,0,0,0,0,0
			l3.3,3.2c0.1,0.1,0.1,0.1,0.2,0.1c0.1,0,0.2,0,0.2-0.1c0.1-0.1,0.1-0.3,0-0.4l-3.3-3.2l5.9-5.2c0,0.1,0.1,0.2,0.1,0.3V11.5z"/>
	</g>
</g>
</svg>
