<?xml version="1.0" encoding="utf-8"?>
<!-- Generator: Adobe Illustrator 19.2.1, SVG Export Plug-In . SVG Version: 6.00 Build 0)  -->
<svg version="1.1" id="Layer_1" xmlns="http://www.w3.org/2000/svg" xmlns:xlink="http://www.w3.org/1999/xlink" x="0px" y="0px"
	 viewBox="0 0 18 17" style="enable-background:new 0 0 18 17;" xml:space="preserve">
<style type="text/css">
	.st0{fill:#FFFFFF;}
</style>
<g>
	<g>
		<path class="st0" d="M11.6,14.7H7.3C7.2,14.7,7,14.8,7,15c0,0.2,0.1,0.3,0.3,0.3h4.3c0.2,0,0.3-0.1,0.3-0.3
			C11.9,14.8,11.8,14.7,11.6,14.7z M11.6,13.5H7.3c-0.2,0-0.3,0.1-0.3,0.3c0,0.2,0.1,0.3,0.3,0.3h4.3c0.2,0,0.3-0.1,0.3-0.3
			C11.9,13.7,11.8,13.5,11.6,13.5z M11.6,12.4H7.3c-0.2,0-0.3,0.1-0.3,0.3C7,12.8,7.2,13,7.3,13h4.3c0.2,0,0.3-0.1,0.3-0.3
			C11.9,12.5,11.8,12.4,11.6,12.4z M11.6,9.4H7.3C7.2,9.4,7,9.5,7,9.6v1.4c0,0.2,0.1,0.3,0.3,0.3h0.8c0.2,0,0.3-0.1,0.3-0.3
			c0-0.2-0.1-0.3-0.3-0.3H7.6V9.9h3.7v0.9H9.3c-0.2,0-0.3,0.1-0.3,0.3c0,0.2,0.1,0.3,0.3,0.3h2.4c0.2,0,0.3-0.1,0.3-0.3V9.6
			C11.9,9.5,11.8,9.4,11.6,9.4z M14.7,9.4c-0.9,0-1.6,0.7-1.6,1.6c0,0.9,0.7,1.6,1.6,1.6c0.9,0,1.6-0.7,1.6-1.6
			C16.3,10.1,15.6,9.4,14.7,9.4z M14.7,11.9c-0.6,0-1-0.4-1-1c0-0.5,0.5-1,1-1s1,0.4,1,1C15.8,11.5,15.3,11.9,14.7,11.9z M17,7.6
			h-0.6V4.1c0-0.2-0.1-0.3-0.3-0.3h-1V0.3c0-0.2-0.1-0.3-0.3-0.3H8.4C8.2,0,8.1,0.1,8.1,0.3v3.5h-1C7,3.8,6.8,3.9,6.8,4.1v3.5h-1
			c0-1.6-0.1-2.7-0.1-2.7c0,0,0,0,0,0c0-0.3-0.2-0.6-0.5-0.7C5.1,4,4.8,4,3.7,4S2.3,4,2.2,4.2C1.9,4.3,1.7,4.6,1.7,4.9c0,0,0,0,0,0
			c0,0-0.1,1.2-0.1,2.7H1c-0.5,0-1,0.4-1,1V16c0,0.5,0.4,1,1,1h16c0.5,0,1-0.4,1-1V8.6C18,8,17.6,7.6,17,7.6z M15.2,4.4h0.7v3.2
			h-0.7V4.4z M8.7,0.6h6v7h-6V0.6z M7.4,4.4h0.7v3.2H7.4V4.4z M2.2,4.9c0-0.1,0.1-0.2,0.2-0.2c0.1,0,0.1,0,0.1-0.1
			c0.1,0,0.4-0.1,1.2-0.1c0.8,0,1.1,0,1.2,0.1c0,0,0.1,0.1,0.1,0.1c0.1,0,0.2,0.1,0.2,0.2c0,0.1,0.1,2.3,0.1,4.8
			c0,2.6-0.1,4.7-0.1,4.8c0,0.1-0.1,0.2-0.2,0.2c-0.1,0-0.1,0-0.1,0.1c-0.1,0-0.4,0.1-1.2,0.1c-0.8,0-1.1,0-1.2-0.1
			c0,0-0.1-0.1-0.1-0.1c-0.1,0-0.2-0.1-0.2-0.2c0-0.1-0.1-2.3-0.1-4.8C2.1,7.2,2.2,5,2.2,4.9z M17.4,16c0,0.2-0.2,0.4-0.4,0.4H1
			c-0.2,0-0.4-0.2-0.4-0.4V8.6c0-0.2,0.2-0.4,0.4-0.4h0.6c0,0.5,0,1,0,1.6c0,2.6,0.1,4.8,0.1,4.9c0,0,0,0,0,0c0,0.3,0.2,0.6,0.5,0.7
			c0.1,0.1,0.4,0.2,1.5,0.2c1.1,0,1.4-0.1,1.5-0.2c0.3-0.1,0.5-0.4,0.5-0.7c0,0,0,0,0,0c0,0,0.1-2.3,0.1-4.9c0-0.5,0-1.1,0-1.6H17
			c0.2,0,0.4,0.2,0.4,0.4V16z M11.6,5.7h-1.5C10,5.7,9.9,5.8,9.9,6c0,0.2,0.1,0.3,0.3,0.3h1.5c0.2,0,0.3-0.1,0.3-0.3
			C11.9,5.8,11.8,5.7,11.6,5.7z M13.1,3.8h-3c-0.2,0-0.3,0.1-0.3,0.3c0,0.2,0.1,0.3,0.3,0.3h3c0.2,0,0.3-0.1,0.3-0.3
			C13.4,3.9,13.3,3.8,13.1,3.8z M13.1,1.9h-3C10,1.9,9.9,2,9.9,2.2c0,0.2,0.1,0.3,0.3,0.3h3c0.2,0,0.3-0.1,0.3-0.3
			C13.4,2,13.3,1.9,13.1,1.9z"/>
	</g>
</g>
</svg>
