<?xml version="1.0" encoding="utf-8"?>
<!-- Generator: Adobe Illustrator 19.2.1, SVG Export Plug-In . SVG Version: 6.00 Build 0)  -->
<svg version="1.1" id="Layer_1" xmlns="http://www.w3.org/2000/svg" xmlns:xlink="http://www.w3.org/1999/xlink" x="0px" y="0px"
	 viewBox="0 0 14 18" style="enable-background:new 0 0 14 18;" xml:space="preserve">
<style type="text/css">
	.st0{fill:#FFFFFF;}
</style>
<g>
	<g>
		<g>
			<path class="st0" d="M7,2.7c-2.3,0-4.1,1.8-4.1,3.9c0,2.2,1.9,3.9,4.1,3.9c2.3,0,4.1-1.8,4.1-3.9C11.1,4.5,9.3,2.7,7,2.7z M7,9.5
				c-1.7,0-3-1.3-3-2.9c0-1.6,1.4-2.9,3-2.9c1.7,0,3,1.3,3,2.9C10,8.2,8.7,9.5,7,9.5z M7,0C3.1,0,0,3,0,6.7c0,2.1,1.9,5.3,3,7
				c0.7,1.1,1.5,2.2,2.2,3C6.3,17.9,6.7,18,7,18c0.3,0,0.7-0.1,1.8-1.4c0.7-0.8,1.5-1.9,2.2-3c1.1-1.7,3-4.9,3-7C14,3,10.9,0,7,0z
				 M10.2,12.8C8.8,15,7.5,16.5,7,16.9c-0.5-0.4-1.8-1.8-3.2-4.1C2.1,10.2,1.1,8,1.1,6.7c0-3.1,2.6-5.6,5.9-5.6
				c3.2,0,5.9,2.5,5.9,5.6C12.9,7.9,11.9,10.2,10.2,12.8z"/>
		</g>
	</g>
</g>
</svg>
