<?xml version="1.0" encoding="utf-8"?>
<!-- Generator: Adobe Illustrator 19.2.1, SVG Export Plug-In . SVG Version: 6.00 Build 0)  -->
<svg version="1.1" id="Layer_1" xmlns="http://www.w3.org/2000/svg" xmlns:xlink="http://www.w3.org/1999/xlink" x="0px" y="0px"
	 viewBox="0 0 18 18" style="enable-background:new 0 0 18 18;" xml:space="preserve">
<style type="text/css">
	.st0{fill:#FFFFFF;}
</style>
<g>
	<g>
		<g>
			<path class="st0" d="M17.5,13.9l-3.6-2.4c-0.5-0.3-1.1-0.2-1.4,0.2l-1.1,1.4c-0.1,0.2-0.4,0.2-0.6,0.1l-0.2-0.1
				c-0.7-0.4-1.5-0.8-3.2-2.5C5.8,8.9,5.3,8.1,4.9,7.4L4.8,7.2C4.7,7,4.8,6.7,4.9,6.6l1.4-1.1c0.4-0.3,0.5-1,0.2-1.4L4.1,0.5
				C3.8,0,3.2-0.1,2.7,0.2L1.2,1.1c-0.5,0.3-0.8,0.7-1,1.3c-0.5,2-0.1,5.4,4.9,10.5c4,4,7.1,5.1,9.1,5.1c0.5,0,1-0.1,1.4-0.2
				c0.5-0.1,1-0.5,1.3-1l0.9-1.5C18.1,14.8,18,14.2,17.5,13.9z M17.3,15l-0.9,1.5c-0.2,0.3-0.5,0.6-0.9,0.7
				c-1.8,0.5-5.1,0.1-9.9-4.8C0.7,7.6,0.3,4.3,0.8,2.5c0.1-0.4,0.4-0.7,0.7-0.9L3,0.7c0.2-0.1,0.5-0.1,0.6,0.1l1.3,2L6,4.4
				c0.1,0.2,0.1,0.5-0.1,0.6L4.6,6.1C4.2,6.4,4,7,4.3,7.5l0.1,0.2C4.8,8.4,5.3,9.3,7,11c1.7,1.7,2.6,2.2,3.3,2.6l0.2,0.1
				c0.5,0.3,1,0.1,1.3-0.3l1.1-1.4c0.1-0.2,0.4-0.2,0.6-0.1l3.6,2.4C17.4,14.5,17.5,14.8,17.3,15z M10.2,3c2.8,0,5.1,2.3,5.1,5.1
				c0,0.2,0.1,0.3,0.3,0.3c0.2,0,0.3-0.1,0.3-0.3c0-3.1-2.6-5.7-5.7-5.7c-0.2,0-0.3,0.1-0.3,0.3C9.9,2.9,10,3,10.2,3z M10.2,4.8
				c1.8,0,3.3,1.5,3.3,3.3c0,0.2,0.1,0.3,0.3,0.3c0.2,0,0.3-0.1,0.3-0.3c0-2.2-1.7-3.9-3.9-3.9c-0.2,0-0.3,0.1-0.3,0.3
				C9.9,4.7,10,4.8,10.2,4.8z M10.2,6.6c0.8,0,1.5,0.7,1.5,1.5c0,0.2,0.1,0.3,0.3,0.3c0.2,0,0.3-0.1,0.3-0.3c0-1.2-0.9-2.1-2.1-2.1
				C10,6,9.9,6.1,9.9,6.3C9.9,6.5,10,6.6,10.2,6.6z"/>
		</g>
	</g>
</g>
</svg>
